<svg xmlns="http://www.w3.org/2000/svg" viewBox="0 0 1165.5 382.36"><defs><style>.cls-1{font-size:150px;fill:#999;font-family:MargoSerif-Regular, Margo Serif;}.cls-2{letter-spacing:-0.01em;}.cls-3{letter-spacing:-0.04em;}.cls-4{letter-spacing:-0.03em;}.cls-5{letter-spacing:-0.07em;}.cls-6{letter-spacing:-0.03em;}.cls-7{letter-spacing:-0.02em;}.cls-8{letter-spacing:-0.05em;}.cls-9{letter-spacing:-0.04em;}.cls-10{letter-spacing:-0.09em;}.cls-11{fill:#fff;}</style></defs><g id="Layer_2" data-name="Layer 2"><text class="cls-1" transform="translate(313.57 161.81)"><tspan class="cls-2">H</tspan><tspan class="cls-3" x="118.95" y="0">A</tspan><tspan class="cls-4" x="234.45" y="0">P</tspan><tspan class="cls-5" x="334.95" y="0">P</tspan><tspan x="429.45" y="0">Y</tspan></text><text class="cls-1" transform="translate(0 344.41)"><tspan class="cls-6">A</tspan><tspan class="cls-7" x="117" y="0">NNI</tspan><tspan class="cls-8" x="399.6" y="0">V</tspan><tspan class="cls-4" x="521.1" y="0">ER</tspan><tspan class="cls-9" x="742.8" y="0">S</tspan><tspan class="cls-4" x="833.7" y="0">A</tspan><tspan class="cls-10" x="950.7" y="0">R</tspan><tspan x="1056.6" y="0">Y</tspan></text></g><g id="Layer_3" data-name="Layer 3"><path class="cls-11" d="M474.22,346.74c0,1-.05,2-.06,3,1.88-2.91,3.74-5.75,5.59-8.55A25.89,25.89,0,0,0,474.22,346.74Z" transform="translate(-56 -275.79)"/><path class="cls-11" d="M531.23,275.79h-2c-1.85.26-4.36,1.72-7.52,4.35q-7.53,5.94-20.18,21Q488,317.39,474.44,337.33l0,.19h.6a8.69,8.69,0,0,1,.89.05,8.78,8.78,0,0,1,1.45,0h0c.65,0,1.3,0,1.95.07h1a1,1,0,0,1,.93,1.16l0,0q10.38-15.56,20.23-28.62a213.7,213.7,0,0,1,19.78-22.95c.53-.52,1.39-1.31,2.57-2.37a13.27,13.27,0,0,1,3.76-2.38,5.41,5.41,0,0,1-.59,3.76c-.66,1.19-1.13,2.05-1.39,2.58q-37.59,69.64-68.85,115.54a274.74,274.74,0,0,1-28.48,34.42c-.54.53-1.59,1.52-3.17,3a21.6,21.6,0,0,1-5.94,3.76l13.46-25.72c5.36-9.77,10.63-19.07,15.82-28,0-2-.08-4,0-5.95,0-.33,0-.65.07-1,0-.51,0-1,0-1.54,0-1.38-.06-2.77-.05-4.21a3,3,0,0,1,0-.31c0-.06,0-.12,0-.18Q422.75,422.8,393.14,485.9a29.18,29.18,0,0,1-2.18,3.76,2.72,2.72,0,0,1-2.17,1.38l-4.75-.79a70.47,70.47,0,0,0-15.43-2,67.3,67.3,0,0,0-21.37,3.56,8.74,8.74,0,0,0-3.17,1.59c-1.84.79-2.77,1.84-2.77,3.16s1.06,2.51,3.17,3.56a84.62,84.62,0,0,0,9.5,1.58,66.69,66.69,0,0,0,8.7.4c5,0,8.84-.13,11.48-.4h11.08a7,7,0,0,1-.8,4.75,15.55,15.55,0,0,1-1.58,2.38q-17.4,43.53-27.7,74-6.31,20.17-9.69,31.66a190.21,190.21,0,0,0-5.34,24.13,43.88,43.88,0,0,0-.4,6.73,19,19,0,0,0,.4,4.35q2,6.33,6.72,6.33a9.31,9.31,0,0,0,4-1.18,16.66,16.66,0,0,0,6.33-5.15,138,138,0,0,0,8.71-13.06c3.93-6.18,8-13.33,12.25-21.38a30.64,30.64,0,0,0-2.16-2.25c-.29-.26-1.14-1-1.36-1.22l-.6-.35q-8.25,15.43-18.42,31.53-3.94,6.33-8.31,8.71a23.93,23.93,0,0,1-.79-7.12,83.19,83.19,0,0,1,.79-9.5q4.75-22.56,16.22-57.37,10.68-32.06,26.91-69.25c.27-.79,1.45-3.29,3.56-7.52a22.8,22.8,0,0,1,7.91,11.28,52.64,52.64,0,0,1,2,15.23q0,10.3-5.14,26.52c-2.61,8.3-5.77,16.79-9.41,25.45a28.66,28.66,0,0,1-.13,3.07c0,2.17,0,4.34-.14,6.51v2.59c0,.49.06,1,.06,1.47l.52-1.11q6.33-14.25,10.48-24.53A129,129,0,0,0,406.59,546a91,91,0,0,0,2.77-20.18,45.11,45.11,0,0,0-7.12-24.93v-.79a3.26,3.26,0,0,1,2.37-.79h2a443.26,443.26,0,0,0,57.77-9.1,180.79,180.79,0,0,0,36.8-11.87q6.33-2.76,8.71-7.12a4.48,4.48,0,0,0,.39-2,1.54,1.54,0,0,0-1.18-1.58,2.35,2.35,0,0,0-3.17,1.18,8.39,8.39,0,0,1-2.37,3.76,18.56,18.56,0,0,1-4,2.57l-3.17,1.59q-7.92,3.17-11.87,4.35-33.24,10.29-83.88,15h-1.78a3.29,3.29,0,0,1-2.58-1.58q5.94-13.85,11.08-24.13l6.73-14.65a8.91,8.91,0,0,1,3.17-3.16,79.25,79.25,0,0,0,15.82-12.27,178.62,178.62,0,0,0,15-17.41A616.59,616.59,0,0,0,489.29,363q19-31.47,43.92-77.36c.26-.53.79-1.84,1.58-4Q536.77,275.79,531.23,275.79ZM365.05,498.56q-10.69,0-16.62-1.58,6.33-5.53,18.59-5.54,11.88,0,20.58,5.54A165.77,165.77,0,0,1,365.05,498.56Z" transform="translate(-56 -275.79)"/><path class="cls-11" d="M493.25,544.85a8.14,8.14,0,0,1-7.13-3.36q-2.37-3.36-1.58-9.3,1.18-10.28,7.52-28.09,5.15-14.64,11.67-28.69t16.82-35a37.15,37.15,0,0,1,3.16-4.75,2.67,2.67,0,0,1,2.38-1.18,1.84,1.84,0,0,1,2,1.18,2.63,2.63,0,0,1-.4,2.38l-2.37,4.75q-20.19,40-30.07,69.64a115.33,115.33,0,0,0-4.36,17.8,22.76,22.76,0,0,0-.79,5.15c.27,3.95,1.58,5.93,4,5.93a9.35,9.35,0,0,0,4-1.18,63.47,63.47,0,0,0,7.51-4.75A374.22,374.22,0,0,0,553,493a125.16,125.16,0,0,0,15.82-21,11.56,11.56,0,0,1,2.18-3,6.47,6.47,0,0,1,3.36-1.78l.4,1.58a9.59,9.59,0,0,1-1.19,3.17A128.09,128.09,0,0,1,551,501.72a410,410,0,0,1-39.18,34.43,73,73,0,0,1-12.66,7.52A19.49,19.49,0,0,1,493.25,544.85ZM536.18,384a11.17,11.17,0,0,0,.59-2.18q4-14.25,19-22.55a2.65,2.65,0,0,1,2-.79,6.37,6.37,0,0,1,4,1.58,43.52,43.52,0,0,0-12.27,8.7q-7.11,7.13-8.7,14.64-.79,3.57-3.56,3.17A1.88,1.88,0,0,1,536.18,384Z" transform="translate(-56 -275.79)"/><path class="cls-11" d="M800.29,466.9a12.92,12.92,0,0,0-3.16.8l-14.25,5.14a329.58,329.58,0,0,0-55.39,32.84,4.85,4.85,0,0,1-2.57,1.19,4.79,4.79,0,0,1-2.57-1.19l-9.11-6.33Q703,493,683.17,488.67q-3.17-.8-9.89-2a54.12,54.12,0,0,1-11.48-3.17c-2.11-.52-3.16-1.58-3.16-3.16a1.83,1.83,0,0,1,1.38-2,9.53,9.53,0,0,1,1.78-.4q36.81-13.85,79.14-41.54l3.17-3.17c1-1,1.38-1.91,1-2.57a3.73,3.73,0,0,0-2.57-1.39l-8.32.4a142.64,142.64,0,0,0-24.13,9.5q-11.88,5.93-27.3,14.64-16.23,9.11-26.12,19c-3.7,3.7-8.7,5.93-15,6.73a47.05,47.05,0,0,1-7.12.79q-16.23,0-22.16-18.2L610,453.85q-2-4.75-6.33-4.75a7.57,7.57,0,0,0-4,1.19l-4.35,3.16L585,465.72l-17.41,26.11,1.19-3.56,14.24-33.63,12.27-30.07c.52-1.85.26-3-.79-3.57-2.12-.52-3.83.54-5.15,3.17l-11.08,26.51-15.43,35.61-22.15,52.63q-2,4,.79,5.14c2.37,1.33,4.35.79,5.93-1.58l4.75-7.12,5.14-10.29.8-1.59a11.23,11.23,0,0,1-1-2.42,1.2,1.2,0,0,1,0-.19.86.86,0,0,1,.05-.57,1.12,1.12,0,0,1,0-.13h0a.88.88,0,0,1,.83-.49h.42l.06,0a7.4,7.4,0,0,0,.81-.08,2,2,0,0,1,.35,0l.13,0a.38.38,0,0,1,.15,0h.05l5.57-11.31a236.39,236.39,0,0,1,14.25-25.12c.79-1.05,3-4.49,6.72-10.29A93.13,93.13,0,0,1,599.29,457a16.74,16.74,0,0,0,1.38-1.78,2.75,2.75,0,0,1,2.18-1.38,2.65,2.65,0,0,1,1.58,2.17,16.68,16.68,0,0,1,.4,2.18l2.77,7.91q5.53,17.42,28.09,17.41a80.33,80.33,0,0,0,13.45-1.58c1.85-.53,3-.53,3.56,0a9.39,9.39,0,0,0,4.75,4.15q2.76,1,8.31,2.58l28.89,6.72q14.63,4.75,24.13,13.06c1.05.79,1.59,1.45,1.59,2s-.54,1.19-1.59,2l-7.51,5.93q-23,20.19-33.64,36.41-6.33,9.88-5.93,18.2a9,9,0,0,0,2.17,6.33,10.74,10.74,0,0,0,5.74,3.16,30.18,30.18,0,0,0,5.54.4,12.33,12.33,0,0,0,5.14-.79A74.11,74.11,0,0,0,703,576.4c0-1.26-.09-2.51-.14-3.77-.07-.54-.1-1.08-.12-1.63a63.35,63.35,0,0,1-10.44,5.91l-4.35,1.58a24.56,24.56,0,0,1-4,.79,6.08,6.08,0,0,1-5.34-2.57q-1.79-2.58-1-6.93,1.18-8.31,7.12-17,11.88-17,37.2-37.2c.79-.79,1.38-1.11,1.78-1a3.55,3.55,0,0,1,1.39,1.39q3.15,7.92,3.16,11.08v1.19c0,1.12-.07,2.24-.17,3.35a4.77,4.77,0,0,1,.11,1c0,.47,0,.94.1,1.4a1.85,1.85,0,0,0,0,.23,5.6,5.6,0,0,1,.16,1.12,5.81,5.81,0,0,1,.06,1.17c.18,4.25.39,8.47.46,12.72.56-1,1.11-2.09,1.61-3.18q4-8.7,4-15.83a29.57,29.57,0,0,0-5.93-17.41c-.8-1.31-.4-2.5,1.18-3.56a310.25,310.25,0,0,1,38.38-24.53l7.52-4q16.23-9.5,28.89-11.87A6.11,6.11,0,0,0,800.29,466.9ZM735.8,434.06q-36,24.15-69.25,37.59A250.5,250.5,0,0,1,735.8,434.06Z" transform="translate(-56 -275.79)"/><path class="cls-11" d="M779.64,364.39l-.15-.7a.83.83,0,0,0,0-.15c-3.19,1.17-6.28,2.38-9.23,3.65a31.25,31.25,0,0,0-9.5,5.94c-1.84,1.58-2.77,4.09-2.77,7.51,0,4.23,1.33,7.26,4,9.11,1.58.79,2.91.66,4-.4.79-.53.86-1,.2-1.39a7.92,7.92,0,0,1-1.39-1,10.12,10.12,0,0,1-2.77-6.73q0-4,4.35-7.12,4-2.78,12.67-5.94l.91-.32c-.07-.79-.11-1.57-.19-2.36Z" transform="translate(-56 -275.79)"/><path class="cls-11" d="M840,394.69c-.17-.74-.29-1.48-.4-2.23l-.09-.17c-.45-.91-1-1.81-1.38-2.75q-9.84,18.73-20,40.56Q800.69,467.3,789.41,494T769,548a76.17,76.17,0,0,0-4.74,16.62,4,4,0,0,0,.19,2.77,2.6,2.6,0,0,0,2.57,1.19c1.85,0,2.77-.67,2.77-2l-.39-1.59a1.09,1.09,0,0,1,.2-1.38,1.66,1.66,0,0,0,.59-1q3.16-10.29,5.14-15.43,14.25-36.79,37.2-89.43,14.36-32.55,28.29-59.78C840.57,396.91,840.27,395.8,840,394.69Z" transform="translate(-56 -275.79)"/><path class="cls-11" d="M963.32,335.93q-17,0-34.82,1.19-18.21,1.19-40,4.35l-17,2.38,1.18-2.38q21-32.84,36.41-52.23c.26-.26.72-.65,1.38-1.19s.59-1.18-.2-2c-1-1.06-2.51-.8-4.35.79l-2,2a428,428,0,0,0-38,53,7,7,0,0,1-5.15,3.56q-14.24,2-42.73,7.52c-6.15,1.23-12,2.59-17.55,4.06.16.65.36,1.29.51,1.94.09.41.19.84.26,1.28,4.14-1.09,8.28-2.08,12.43-2.93q17.4-3.57,47.48-8.71L860,351c-2.37,3.81-4.76,7.8-7.17,11.91a6.19,6.19,0,0,1,.36.67c.07.12.13.25.19.38l.24.43c.39.67.74,1.36,1.1,2a22.68,22.68,0,0,1,1.43,3c3.68-6.55,7.34-12.85,11-18.82A6.45,6.45,0,0,1,872.7,347q27.69-3.56,44.32-5.54,26.91-2.76,45.9-2.77a22,22,0,0,1,9.89,2c1.84,1.06,3.43.93,4.75-.4Q972,335.93,963.32,335.93Z" transform="translate(-56 -275.79)"/></g></svg>